<mxfile host="Electron" modified="2024-05-14T07:36:27.387Z" agent="Mozilla/5.0 (Windows NT 10.0; Win64; x64) AppleWebKit/537.36 (KHTML, like Gecko) draw.io/24.2.5 Chrome/120.0.6099.109 Electron/28.1.0 Safari/537.36" etag="Oeu5-kzFTQpG-4p5C8J-" version="24.2.5" type="device">
  <diagram name="Page-1" id="72afKr7DsbJ7DzY8F38O">
    <mxGraphModel dx="1036" dy="607" grid="1" gridSize="10" guides="1" tooltips="1" connect="1" arrows="1" fold="1" page="1" pageScale="1" pageWidth="3300" pageHeight="2339" math="0" shadow="0">
      <root>
        <mxCell id="0" />
        <mxCell id="1" parent="0" />
        <mxCell id="BMO_gJypYWQfz7qLYVYy-26" style="edgeStyle=orthogonalEdgeStyle;rounded=0;orthogonalLoop=1;jettySize=auto;html=1;exitX=1;exitY=0.5;exitDx=0;exitDy=0;entryX=0;entryY=0.5;entryDx=0;entryDy=0;" parent="1" source="BMO_gJypYWQfz7qLYVYy-3" target="BMO_gJypYWQfz7qLYVYy-6" edge="1">
          <mxGeometry relative="1" as="geometry" />
        </mxCell>
        <mxCell id="BMO_gJypYWQfz7qLYVYy-29" style="edgeStyle=orthogonalEdgeStyle;rounded=0;orthogonalLoop=1;jettySize=auto;html=1;exitX=0.75;exitY=1;exitDx=0;exitDy=0;" parent="1" source="BMO_gJypYWQfz7qLYVYy-3" target="BMO_gJypYWQfz7qLYVYy-15" edge="1">
          <mxGeometry relative="1" as="geometry" />
        </mxCell>
        <mxCell id="BMO_gJypYWQfz7qLYVYy-3" value="AWS IoT Core" style="whiteSpace=wrap;html=1;" parent="1" vertex="1">
          <mxGeometry x="361" y="220" width="120" height="60" as="geometry" />
        </mxCell>
        <mxCell id="H-O-5pvnLsHWWHiVlwLh-4" style="edgeStyle=orthogonalEdgeStyle;rounded=0;orthogonalLoop=1;jettySize=auto;html=1;exitX=1;exitY=0.5;exitDx=0;exitDy=0;entryX=0;entryY=0.5;entryDx=0;entryDy=0;" parent="1" source="BMO_gJypYWQfz7qLYVYy-6" target="BMO_gJypYWQfz7qLYVYy-7" edge="1">
          <mxGeometry relative="1" as="geometry" />
        </mxCell>
        <mxCell id="BMO_gJypYWQfz7qLYVYy-6" value="AWS Kinesis Data Steam" style="whiteSpace=wrap;html=1;" parent="1" vertex="1">
          <mxGeometry x="601" y="220" width="120" height="60" as="geometry" />
        </mxCell>
        <mxCell id="H-O-5pvnLsHWWHiVlwLh-20" style="edgeStyle=orthogonalEdgeStyle;rounded=0;orthogonalLoop=1;jettySize=auto;html=1;exitX=1;exitY=0.25;exitDx=0;exitDy=0;entryX=0.75;entryY=1;entryDx=0;entryDy=0;startArrow=none;startFill=0;" parent="1" source="BMO_gJypYWQfz7qLYVYy-7" target="H-O-5pvnLsHWWHiVlwLh-14" edge="1">
          <mxGeometry relative="1" as="geometry" />
        </mxCell>
        <mxCell id="BMO_gJypYWQfz7qLYVYy-7" value="Dynamo DB" style="whiteSpace=wrap;html=1;" parent="1" vertex="1">
          <mxGeometry x="771" y="220" width="120" height="60" as="geometry" />
        </mxCell>
        <mxCell id="H-O-5pvnLsHWWHiVlwLh-3" style="edgeStyle=orthogonalEdgeStyle;rounded=0;orthogonalLoop=1;jettySize=auto;html=1;exitX=1;exitY=0.5;exitDx=0;exitDy=0;entryX=0;entryY=0.5;entryDx=0;entryDy=0;" parent="1" source="BMO_gJypYWQfz7qLYVYy-9" target="BMO_gJypYWQfz7qLYVYy-30" edge="1">
          <mxGeometry relative="1" as="geometry" />
        </mxCell>
        <mxCell id="BMO_gJypYWQfz7qLYVYy-9" value="&quot;Air Temperature&quot;&lt;div&gt;&amp;nbsp;&quot;Air humidity&quot;&lt;/div&gt;&lt;div&gt;&amp;nbsp;from an&lt;br&gt;open weather API&lt;div&gt;&lt;a href=&quot;https://openweathermap.org/api&quot;&gt;Weather API - OpenWeatherMap&lt;/a&gt;&amp;nbsp;&lt;br&gt;&lt;/div&gt;&lt;/div&gt;" style="whiteSpace=wrap;html=1;" parent="1" vertex="1">
          <mxGeometry x="361" y="60" width="120" height="120" as="geometry" />
        </mxCell>
        <mxCell id="BMO_gJypYWQfz7qLYVYy-13" style="edgeStyle=orthogonalEdgeStyle;rounded=0;orthogonalLoop=1;jettySize=auto;html=1;exitX=0.5;exitY=0;exitDx=0;exitDy=0;entryX=0.25;entryY=1;entryDx=0;entryDy=0;" parent="1" source="BMO_gJypYWQfz7qLYVYy-11" target="BMO_gJypYWQfz7qLYVYy-7" edge="1">
          <mxGeometry relative="1" as="geometry" />
        </mxCell>
        <mxCell id="BMO_gJypYWQfz7qLYVYy-11" value="&amp;nbsp;initial soil sensor information can be stored in a cloud database along with unique&amp;nbsp;&lt;div&gt;&quot;device id&quot; and&amp;nbsp;&amp;nbsp;&lt;div&gt;&quot;lat/long &quot;&amp;nbsp;&lt;/div&gt;&lt;div&gt;coordinates&lt;/div&gt;&lt;/div&gt;" style="whiteSpace=wrap;html=1;dashed=1;dashPattern=8 8;" parent="1" vertex="1">
          <mxGeometry x="611" y="340" width="120" height="130" as="geometry" />
        </mxCell>
        <mxCell id="H-O-5pvnLsHWWHiVlwLh-15" style="edgeStyle=orthogonalEdgeStyle;rounded=0;orthogonalLoop=1;jettySize=auto;html=1;exitX=0.5;exitY=0;exitDx=0;exitDy=0;entryX=0.5;entryY=1;entryDx=0;entryDy=0;" parent="1" source="BMO_gJypYWQfz7qLYVYy-12" target="BMO_gJypYWQfz7qLYVYy-7" edge="1">
          <mxGeometry relative="1" as="geometry" />
        </mxCell>
        <mxCell id="BMO_gJypYWQfz7qLYVYy-12" value="sprinkler&lt;br&gt;locations&lt;div&gt;Device ID&lt;/div&gt;&lt;div&gt;lat/long&lt;/div&gt;" style="whiteSpace=wrap;html=1;dashed=1;dashPattern=8 8;" parent="1" vertex="1">
          <mxGeometry x="766" y="340" width="130" height="130" as="geometry" />
        </mxCell>
        <mxCell id="BMO_gJypYWQfz7qLYVYy-15" value="5 Sprinklers (Actuator)" style="whiteSpace=wrap;html=1;" parent="1" vertex="1">
          <mxGeometry x="431" y="340" width="110" height="60" as="geometry" />
        </mxCell>
        <mxCell id="BMO_gJypYWQfz7qLYVYy-17" value="BUSINESS LOGIC&lt;div&gt;The system needs to continuously monitor the incoming soil and air readings. Based on a&lt;br&gt;reasonable linear difference algorithm that you can define, it should decide whether a particular soil sensor location requires water. If enough soil sensors (based on a predefined percentage) mapped to a sprinkler raise an alarm, the system should send a command to the sprinkler to turn on. Similarly, it should decide when to turn them off.&lt;/div&gt;&lt;div&gt;&lt;br&gt;&lt;/div&gt;&lt;div style=&quot;font-size: 11px;&quot;&gt;&lt;font style=&quot;font-size: 11px;&quot;&gt;&lt;br&gt;&lt;/font&gt;&lt;/div&gt;&lt;div style=&quot;font-size: 11px;&quot;&gt;&lt;div style=&quot;&quot;&gt;&lt;font style=&quot;font-size: 11px;&quot; face=&quot;Google Sans, Roboto, Helvetica Neue, Arial, sans-serif&quot; color=&quot;#f0efff&quot;&gt;MOISTURE MEASUREMENT RANGE&lt;span style=&quot;white-space: pre;&quot;&gt;&#x9;&lt;/span&gt;0-100%, best is 50%&lt;/font&gt;&lt;/div&gt;&lt;div style=&quot;&quot;&gt;&lt;font style=&quot;font-size: 11px;&quot;&gt;&lt;span style=&quot;background-color: rgb(31, 31, 31); color: rgb(240, 239, 255); font-family: &amp;quot;Google Sans&amp;quot;, Roboto, &amp;quot;Helvetica Neue&amp;quot;, Arial, sans-serif;&quot;&gt;Paddy, or rice, grows best in&amp;nbsp;&lt;/span&gt;&lt;br&gt;&lt;/font&gt;&lt;/div&gt;&lt;div style=&quot;&quot;&gt;&lt;mark style=&quot;font-family: &amp;quot;Google Sans&amp;quot;, Roboto, &amp;quot;Helvetica Neue&amp;quot;, Arial, sans-serif;&quot; class=&quot;QVRyCf&quot;&gt;&lt;font style=&quot;font-size: 11px;&quot;&gt;hot and humid climates with an temperature range of 21–42°C&lt;/font&gt;&lt;/mark&gt;&lt;/div&gt;&lt;/div&gt;" style="shape=process;whiteSpace=wrap;html=1;backgroundOutline=1;" parent="1" vertex="1">
          <mxGeometry x="301" y="510" width="600" height="170" as="geometry" />
        </mxCell>
        <mxCell id="BMO_gJypYWQfz7qLYVYy-24" style="edgeStyle=orthogonalEdgeStyle;rounded=0;orthogonalLoop=1;jettySize=auto;html=1;exitX=0.5;exitY=0;exitDx=0;exitDy=0;entryX=0.25;entryY=1;entryDx=0;entryDy=0;" parent="1" source="BMO_gJypYWQfz7qLYVYy-20" target="BMO_gJypYWQfz7qLYVYy-3" edge="1">
          <mxGeometry relative="1" as="geometry" />
        </mxCell>
        <mxCell id="BMO_gJypYWQfz7qLYVYy-20" value="20 Soil Sensor&lt;b&gt;&amp;nbsp;&lt;/b&gt;&lt;div&gt;&lt;b&gt;&quot;Soil Temperature&quot;&lt;/b&gt;&lt;/div&gt;&lt;div&gt;&lt;b&gt;&quot;Soil Moisture&quot;&lt;/b&gt;&lt;/div&gt;" style="whiteSpace=wrap;html=1;" parent="1" vertex="1">
          <mxGeometry x="301" y="340" width="120" height="60" as="geometry" />
        </mxCell>
        <mxCell id="H-O-5pvnLsHWWHiVlwLh-5" style="edgeStyle=orthogonalEdgeStyle;rounded=0;orthogonalLoop=1;jettySize=auto;html=1;exitX=1;exitY=0.5;exitDx=0;exitDy=0;entryX=0.5;entryY=0;entryDx=0;entryDy=0;" parent="1" source="BMO_gJypYWQfz7qLYVYy-30" target="BMO_gJypYWQfz7qLYVYy-7" edge="1">
          <mxGeometry relative="1" as="geometry" />
        </mxCell>
        <mxCell id="BMO_gJypYWQfz7qLYVYy-30" value="Lambda" style="whiteSpace=wrap;html=1;" parent="1" vertex="1">
          <mxGeometry x="601" y="110" width="120" height="60" as="geometry" />
        </mxCell>
        <mxCell id="BMO_gJypYWQfz7qLYVYy-31" value="Display status of the sensor and sprinklers" style="whiteSpace=wrap;html=1;" parent="1" vertex="1">
          <mxGeometry x="930" y="30" width="120" height="60" as="geometry" />
        </mxCell>
        <mxCell id="BMO_gJypYWQfz7qLYVYy-32" value="&amp;nbsp;The sensors and actuators could be auto-provisioned using a program which can use&lt;br/&gt;AWS IoT Core APIs" style="whiteSpace=wrap;html=1;dashed=1;dashPattern=12 12;" parent="1" vertex="1">
          <mxGeometry x="301" y="410" width="240" height="70" as="geometry" />
        </mxCell>
        <mxCell id="H-O-5pvnLsHWWHiVlwLh-6" value="WS1" style="shape=orEllipse;perimeter=ellipsePerimeter;whiteSpace=wrap;html=1;backgroundOutline=1;" parent="1" vertex="1">
          <mxGeometry x="80" y="160" width="80" height="80" as="geometry" />
        </mxCell>
        <mxCell id="H-O-5pvnLsHWWHiVlwLh-7" value="WS2" style="shape=orEllipse;perimeter=ellipsePerimeter;whiteSpace=wrap;html=1;backgroundOutline=1;" parent="1" vertex="1">
          <mxGeometry x="80" y="235" width="80" height="80" as="geometry" />
        </mxCell>
        <mxCell id="H-O-5pvnLsHWWHiVlwLh-8" value="WS3" style="shape=orEllipse;perimeter=ellipsePerimeter;whiteSpace=wrap;html=1;backgroundOutline=1;" parent="1" vertex="1">
          <mxGeometry x="80" y="310" width="80" height="80" as="geometry" />
        </mxCell>
        <mxCell id="H-O-5pvnLsHWWHiVlwLh-9" value="WS4" style="shape=orEllipse;perimeter=ellipsePerimeter;whiteSpace=wrap;html=1;backgroundOutline=1;" parent="1" vertex="1">
          <mxGeometry x="80" y="385" width="80" height="80" as="geometry" />
        </mxCell>
        <mxCell id="H-O-5pvnLsHWWHiVlwLh-10" value="WS5" style="shape=orEllipse;perimeter=ellipsePerimeter;whiteSpace=wrap;html=1;backgroundOutline=1;" parent="1" vertex="1">
          <mxGeometry x="80" y="460" width="80" height="80" as="geometry" />
        </mxCell>
        <mxCell id="H-O-5pvnLsHWWHiVlwLh-11" value="SS01: T,M&lt;div&gt;&lt;br&gt;&lt;/div&gt;&lt;div&gt;&lt;br&gt;&lt;div&gt;SS04: T, M&lt;/div&gt;&lt;/div&gt;" style="text;html=1;align=center;verticalAlign=middle;resizable=0;points=[];autosize=1;strokeColor=none;fillColor=none;" parent="1" vertex="1">
          <mxGeometry x="10" y="165" width="80" height="70" as="geometry" />
        </mxCell>
        <mxCell id="H-O-5pvnLsHWWHiVlwLh-12" value="SS02: T, M&lt;div&gt;&lt;br&gt;&lt;/div&gt;&lt;div&gt;&lt;br&gt;&lt;div&gt;SS03: T, M&lt;/div&gt;&lt;/div&gt;" style="text;html=1;align=center;verticalAlign=middle;resizable=0;points=[];autosize=1;strokeColor=none;fillColor=none;" parent="1" vertex="1">
          <mxGeometry x="160" y="165" width="80" height="70" as="geometry" />
        </mxCell>
        <mxCell id="H-O-5pvnLsHWWHiVlwLh-22" style="edgeStyle=orthogonalEdgeStyle;rounded=0;orthogonalLoop=1;jettySize=auto;html=1;exitX=0.25;exitY=1;exitDx=0;exitDy=0;entryX=0.5;entryY=0;entryDx=0;entryDy=0;" parent="1" source="H-O-5pvnLsHWWHiVlwLh-14" target="BMO_gJypYWQfz7qLYVYy-3" edge="1">
          <mxGeometry relative="1" as="geometry" />
        </mxCell>
        <mxCell id="pJ-4-wcMEGj7AElFEsC_-2" style="edgeStyle=orthogonalEdgeStyle;rounded=0;orthogonalLoop=1;jettySize=auto;html=1;exitX=0.5;exitY=0;exitDx=0;exitDy=0;entryX=0.5;entryY=1;entryDx=0;entryDy=0;" edge="1" parent="1" source="H-O-5pvnLsHWWHiVlwLh-14" target="BMO_gJypYWQfz7qLYVYy-31">
          <mxGeometry relative="1" as="geometry" />
        </mxCell>
        <mxCell id="H-O-5pvnLsHWWHiVlwLh-14" value="Lambda" style="whiteSpace=wrap;html=1;" parent="1" vertex="1">
          <mxGeometry x="930" y="110" width="120" height="60" as="geometry" />
        </mxCell>
      </root>
    </mxGraphModel>
  </diagram>
</mxfile>
